<?xml version="1.0" encoding="utf-8"?>
<!-- Generator: Adobe Illustrator 22.0.0, SVG Export Plug-In . SVG Version: 6.00 Build 0)  -->
<svg version="1.1" id="Layer_1" xmlns="http://www.w3.org/2000/svg" xmlns:xlink="http://www.w3.org/1999/xlink" x="0px" y="0px"
	 viewBox="0 0 115.6 103" style="enable-background:new 0 0 115.6 103;" xml:space="preserve">
<g>
	<g>
		<path d="M92.8,102.8c-0.9,0-1.8-0.3-2.5-0.8L61.4,82.5L46,93.7c-1.2,0.9-2.8,1.1-4.2,0.6c-1.4-0.5-2.5-1.7-2.9-3.1l-7.8-29.4
			L3.4,51.1c-1.7-0.7-2.9-2.3-2.9-4.2c0-1.9,1.1-3.6,2.9-4.2l105.4-42c0.5-0.2,1-0.3,1.5-0.4c0.2,0,0.4,0,0.5,0
			c1.1,0.1,2.1,0.5,2.9,1.3c0.1,0.1,0.2,0.2,0.2,0.3c0.7,0.8,1,1.7,1.1,2.7c0,0.2,0,0.5,0,0.7c0,0.2,0,0.3-0.1,0.5L97.3,99.1
			c-0.3,1.5-1.3,2.8-2.7,3.3C94,102.7,93.4,102.8,92.8,102.8z M64,73.3l25.7,17.4L103.5,18l-50,48.2l10.4,7
			C63.9,73.2,63.9,73.2,64,73.3z M42.6,69.4l3.4,13l7.4-5.3l-9.7-6.6C43.3,70.2,42.9,69.8,42.6,69.4z M17.5,46.8l19,7.3
			c1.4,0.5,2.4,1.7,2.8,3.1l2.4,9.2c0.1-1.1,0.6-2,1.4-2.8l47.6-45.9L17.5,46.8z"/>
	</g>
</g>
</svg>
