<?xml version="1.0" encoding="utf-8"?>
<!-- Generator: Adobe Illustrator 24.1.1, SVG Export Plug-In . SVG Version: 6.00 Build 0)  -->
<svg version="1.1" id="Livello_1" xmlns="http://www.w3.org/2000/svg" xmlns:xlink="http://www.w3.org/1999/xlink" x="0px" y="0px"
	 viewBox="0 0 841.89 595.28" style="enable-background:new 0 0 841.89 595.28;" xml:space="preserve">
<!--<style type="text/css">
	.st1{fill:#FFFFFF;}
	.st0{fill:#0167B0;}
</style>-->
<g>
	<!--<path class="st0" d="M669.42,492.68c-145.28,0-290.54,0-435.79,0c0-138.28,0-276.55,0-414.8c145.28,0,290.54,0,435.79,0
		C669.42,216.16,669.42,354.42,669.42,492.68z M405.66,459.89c0.06-1.79,0.13-3.51,0.17-5.24c0.16-8.59,0.7-17.15,1.72-25.69
		c1.21-10.06,2.83-20.05,5.13-29.93c3.26-14.01,7.65-27.64,13.79-40.68c4.73-10.06,10.37-19.55,17.62-28.03
		c5.35-6.25,11.38-11.69,18.62-15.71c5.65-3.14,11.66-5.16,18.14-5.52c8.92-0.5,17.18,1.67,24.8,6.36c7.7,4.75,13.98,11,19.41,18.17
		c6.96,9.19,12.24,19.32,16.52,29.98c8.53,21.25,12.96,43.43,14.95,66.16c0.56,6.36,0.88,12.73,0.98,19.11
		c0.01,0.41-0.07,0.84,0.23,1.25c0.86,0.05,0.67-0.59,0.64-1.04c-0.19-3.19-0.17-6.38-0.34-9.56c-0.39-7.5-1.05-14.97-2-22.41
		c-1.35-10.52-3.31-20.92-6-31.18c-3.62-13.78-8.43-27.12-15.17-39.71c-5.26-9.82-11.5-18.92-19.56-26.67
		c-8.34-8.03-17.97-13.92-29.1-17.31c-9.84-2.99-19.93-4.49-30.17-4.91c-11.92-0.5-23.82-0.09-35.66,1.55
		c-9.73,1.34-19.27,3.45-28.59,6.56c-12.41,4.15-23.79,10.14-33.73,18.72c-9.02,7.79-16.53,16.87-22.86,26.94
		c-8.57,13.64-14.75,28.32-19.35,43.72c-2.78,9.31-4.88,18.78-6.43,28.36c-0.89,5.51-1.66,11.03-2.12,16.6
		c-0.29,3.51-0.5,7.02-0.68,10.53c-0.12,2.28-0.02,4.57-0.02,6.88C310.72,458.43,398.27,460.86,405.66,459.89z M412.32,245.72
		c-0.08,0.74,0.13,1.39,0.41,2.03c0.59,1.35,1.46,2.51,2.48,3.56c1.79,1.83,3.85,3.28,6.05,4.55c8.73,5.04,17.46,10.08,26.28,14.97
		c14.76,8.19,29.67,16.09,45.12,22.94c13.91,6.16,28.12,11.46,42.98,14.87c7.88,1.8,15.84,3.04,23.9,3.47
		c8.89,0.47,17.72-0.15,26.45-1.94c8.6-1.77,16.81-4.61,24.43-9c14.58-8.39,24.74-20.61,31.14-36.06
		c3.59-8.65,5.69-17.66,6.09-27.03c0.33-7.67-0.91-15.14-3.41-22.4c-4.09-11.87-11.31-21.54-21-29.38
		c-17.52-14.17-37.79-21.14-60.11-22.48c-8.02-0.48-16.03-0.05-24.01,1.01c-6.99,0.93-13.83,2.45-20.51,4.73
		c-10.88,3.73-21.02,8.97-30.82,14.94c-12.68,7.73-24.59,16.55-36.2,25.78c-12.67,10.08-24.93,20.65-37.16,31.26
		c-0.42,0.37-0.85,0.74-1.21,1.17c-0.58,0.68-1.01,1.44-0.87,2.41c0.48,0,0.7-0.34,0.98-0.58c1.53-1.31,3.05-2.65,4.57-3.97
		c13.37-11.59,26.82-23.07,40.88-33.83c10.81-8.27,21.93-16.1,33.78-22.83c8.54-4.85,17.36-9.09,26.79-11.96
		c11.61-3.54,23.52-4.67,35.6-4.16c6.39,0.27,12.68,1.31,18.79,3.28c9.41,3.04,17.53,8.06,23.84,15.76
		c7.87,9.62,11.55,20.82,12.11,33.1c0.43,9.49-1.4,18.68-4.48,27.62c-4.05,11.76-10.25,22.22-19.31,30.83
		c-13.28,12.62-29.37,18.39-47.44,19.1c-6.17,0.24-12.26-0.58-18.3-1.81c-8.38-1.71-16.5-4.31-24.48-7.35
		c-13.96-5.32-27.34-11.87-40.54-18.82c-13.98-7.37-27.69-15.24-41.39-23.11C413.32,246.15,412.93,245.78,412.32,245.72z
		 M426.33,114.58c-1.13,0.06-2.73,0.08-4.32,0.26c-1.77,0.2-3.54,0.47-5.27,0.86c-24.95,5.63-40.4,29.96-35.51,54.8
		c4.8,24.43,26.95,39.95,49.92,37.82c6.39-0.59,12.41-2.38,18.03-5.46c18.15-9.95,27.52-30.56,23.22-51
		C467.84,130.2,448.82,114.65,426.33,114.58z M412.01,245.52c-0.26-0.36-0.67-0.51-1.03-0.72c-9.14-5.27-18.29-10.53-27.54-15.6
		c-10.81-5.93-21.72-11.68-33.07-16.55c-8.16-3.5-16.45-6.58-25.22-8.18c-3.93-0.72-7.89-1.15-11.89-0.83
		c-5.27,0.41-10.37,1.6-15.37,3.24c-14.22,4.64-25.51,13.11-33.45,25.86c-5.18,8.32-8.32,17.39-9.65,27.09
		c-0.48,3.5-0.64,7.01-0.19,10.53c0.87,6.89,3.22,13.29,6.68,19.28c5.25,9.08,12.33,16.32,21.9,20.8
		c12.13,5.66,24.6,6.09,37.25,1.86c7.38-2.47,14.2-6.11,20.81-10.16c10.1-6.19,19.54-13.3,28.77-20.69
		c14.11-11.29,27.66-23.24,41.28-35.1C411.56,246.1,411.89,245.9,412.01,245.52z"/>-->
	<path class="st1" d="M405.66,459.89c-7.39,0.97-94.94-1.46-99.08-2.7c0-2.3-0.09-4.59,0.02-6.88c0.18-3.51,0.39-7.02,0.68-10.53
		c0.46-5.57,1.22-11.09,2.12-16.6c1.55-9.59,3.65-19.05,6.43-28.36c4.6-15.39,10.79-30.08,19.35-43.72
		c6.33-10.08,13.84-19.16,22.86-26.94c9.94-8.58,21.32-14.58,33.73-18.72c9.32-3.11,18.86-5.22,28.59-6.56
		c11.84-1.64,23.74-2.04,35.66-1.55c10.24,0.43,20.33,1.92,30.17,4.91c11.13,3.38,20.75,9.27,29.1,17.31
		c8.06,7.76,14.31,16.86,19.56,26.67c6.74,12.59,11.55,25.93,15.17,39.71c2.69,10.26,4.66,20.66,6,31.18
		c0.95,7.45,1.61,14.92,2,22.41c0.17,3.19,0.15,6.38,0.34,9.56c0.03,0.44,0.22,1.09-0.64,1.04c-0.3-0.41-0.22-0.85-0.23-1.25
		c-0.11-6.38-0.43-12.76-0.98-19.11c-1.99-22.73-6.42-44.91-14.95-66.16c-4.28-10.66-9.56-20.79-16.52-29.98
		c-5.43-7.17-11.7-13.42-19.41-18.17c-7.62-4.7-15.88-6.86-24.8-6.36c-6.48,0.36-12.49,2.39-18.14,5.52
		c-7.23,4.01-13.27,9.46-18.62,15.71c-7.25,8.47-12.89,17.97-17.62,28.03c-6.13,13.04-10.53,26.67-13.79,40.68
		c-2.3,9.87-3.92,19.86-5.13,29.93c-1.02,8.53-1.56,17.1-1.72,25.69C405.8,456.37,405.72,458.1,405.66,459.89z"/>
	<path class="st1" d="M412.32,245.72c0.61,0.06,1,0.43,1.44,0.68c13.7,7.87,27.41,15.74,41.39,23.11
		c13.2,6.95,26.58,13.5,40.54,18.82c7.98,3.04,16.1,5.64,24.48,7.35c6.04,1.23,12.13,2.06,18.3,1.81
		c18.08-0.71,34.17-6.48,47.44-19.1c9.06-8.61,15.26-19.07,19.31-30.83c3.08-8.94,4.91-18.12,4.48-27.62
		c-0.56-12.28-4.24-23.49-12.11-33.1c-6.31-7.71-14.43-12.73-23.84-15.76c-6.11-1.97-12.4-3.01-18.79-3.28
		c-12.08-0.5-23.99,0.63-35.6,4.16c-9.42,2.87-18.24,7.11-26.79,11.96c-11.86,6.73-22.97,14.56-33.78,22.83
		c-14.06,10.75-27.51,22.24-40.88,33.83c-1.52,1.32-3.04,2.65-4.57,3.97c-0.27,0.23-0.49,0.58-0.98,0.58
		c-0.14-0.96,0.28-1.73,0.87-2.41c0.36-0.43,0.79-0.8,1.21-1.17c12.22-10.62,24.48-21.18,37.16-31.26
		c11.61-9.23,23.52-18.05,36.2-25.78c9.79-5.97,19.94-11.21,30.82-14.94c6.67-2.29,13.52-3.81,20.51-4.73
		c7.98-1.06,15.98-1.49,24.01-1.01c22.32,1.34,42.59,8.31,60.11,22.48c9.69,7.83,16.9,17.51,21,29.38c2.5,7.25,3.74,14.72,3.41,22.4
		c-0.4,9.37-2.5,18.37-6.09,27.03c-6.4,15.45-16.57,27.67-31.14,36.06c-7.63,4.39-15.84,7.24-24.43,9
		c-8.73,1.79-17.56,2.42-26.45,1.94c-8.07-0.43-16.03-1.67-23.9-3.47c-14.86-3.41-29.07-8.7-42.98-14.87
		c-15.44-6.85-30.35-14.74-45.12-22.94c-8.82-4.89-17.55-9.93-26.28-14.97c-2.2-1.27-4.27-2.73-6.05-4.55
		c-1.02-1.05-1.9-2.21-2.48-3.56C412.45,247.12,412.25,246.46,412.32,245.72z"/>
	<path class="st1" d="M426.33,114.58c22.49,0.07,41.51,15.62,46.07,37.28c4.3,20.44-5.07,41.05-23.22,51
		c-5.62,3.08-11.64,4.87-18.03,5.46c-22.96,2.13-45.11-13.4-49.92-37.82c-4.88-24.84,10.56-49.17,35.51-54.8
		c1.73-0.39,3.5-0.66,5.27-0.86C423.59,114.65,425.19,114.64,426.33,114.58z"/>
	<path class="st1" d="M412.01,245.52c-0.12,0.39-0.45,0.58-0.73,0.82c-13.63,11.86-27.17,23.81-41.28,35.1
		c-9.23,7.39-18.67,14.5-28.77,20.69c-6.61,4.05-13.43,7.69-20.81,10.16c-12.65,4.24-25.12,3.81-37.25-1.86
		c-9.58-4.47-16.66-11.71-21.9-20.8c-3.46-5.99-5.81-12.38-6.68-19.28c-0.44-3.52-0.29-7.03,0.19-10.53
		c1.33-9.7,4.47-18.77,9.65-27.09c7.95-12.75,19.23-21.22,33.45-25.86c5-1.63,10.11-2.82,15.37-3.24c4.01-0.31,7.96,0.11,11.89,0.83
		c8.77,1.6,17.07,4.68,25.22,8.18c11.35,4.86,22.25,10.61,33.07,16.55c9.25,5.08,18.4,10.34,27.54,15.6
		C411.34,245.01,411.75,245.16,412.01,245.52z M407.19,247.76c-0.25-0.18-0.4-0.29-0.56-0.38c-11.42-6.55-22.86-13.08-34.67-18.94
		c-5.58-2.77-11.24-5.39-17.13-7.45c-1-0.35-1.99-0.47-3.03-0.31c-6.95,1.11-13.63,3.11-19.72,6.7
		c-17.31,10.21-25.7,25.9-27.45,45.51c-0.44,4.89,0.72,9.6,2.44,14.16c3.1,8.21,7.93,15.16,14.88,20.6
		c0.92,0.72,1.69,0.83,2.79,0.43c6.16-2.23,11.89-5.3,17.46-8.7c9.87-6.02,19.07-12.97,28.09-20.18
		c12.02-9.61,23.61-19.73,35.2-29.84C406.06,248.89,406.69,248.47,407.19,247.76z"/>
	<!--<path class="st0" d="M407.19,247.76c-0.5,0.71-1.14,1.13-1.7,1.62c-11.59,10.11-23.19,20.23-35.2,29.84
		c-9.01,7.21-18.22,14.16-28.09,20.18c-5.57,3.4-11.3,6.47-17.46,8.7c-1.1,0.4-1.87,0.29-2.79-0.43
		c-6.94-5.44-11.78-12.4-14.88-20.6c-1.72-4.56-2.88-9.27-2.44-14.16c1.75-19.61,10.14-35.29,27.45-45.51
		c6.08-3.59,12.76-5.59,19.72-6.7c1.05-0.17,2.03-0.04,3.03,0.31c5.9,2.06,11.55,4.68,17.13,7.45c11.8,5.86,23.24,12.38,34.67,18.94
		C406.8,247.47,406.94,247.59,407.19,247.76z"/>-->
</g>
<!--<path class="st0" d="M178,224.28"/>-->
</svg>
