<?xml version="1.0" encoding="utf-8"?>
<!-- Generator: Adobe Illustrator 22.0.0, SVG Export Plug-In . SVG Version: 6.00 Build 0)  -->
<svg version="1.1" id="Layer_1" xmlns="http://www.w3.org/2000/svg" xmlns:xlink="http://www.w3.org/1999/xlink" x="0px" y="0px"
	 viewBox="0 0 144.3 121.2" style="enable-background:new 0 0 144.3 121.2;" xml:space="preserve">
<style type="text/css">
	.st0{font-family:'ProductSans-Regular';}
	.st1{font-size:20.2147px;}
</style>
<g>
	<path d="M49.7,72.9v-0.2c6.3-1.1,9.6-7.4,9.6-13.5c0-14.1-13.8-19.1-25.8-19.1c-14.8,0-26,8-26.4,23.5h15.8
		c-0.1-6.2,3.9-9.8,10.7-9.8c5.5,0,9.9,2.5,9.9,6.9c0,6-6.2,7.2-11.2,7.2c-1.5,0.1-3-0.2-4.5-0.1v11.7c1.5-0.1,3-0.2,4.5-0.2
		c6.7,0,12.3,1.8,12.3,9.4c0,6-5.5,8.5-11.2,8.5c-8.5,0-12.6-4.1-12.4-12.3H5.2c-1,17.8,12.1,26,28.3,26c13.7,0,28-6.5,28-22.2
		C61.5,80.7,57.6,75,49.7,72.9z"/>
	<path d="M114.2,62.7c-6.6,0-12.7,1.6-16.2,7.4h-0.2c0.4-7.9,4.1-17.6,13.8-17.6c1.5,0,3.3,0.2,4.9,1.1c1.6,1,2.9,2.6,3.5,5.4h15.8
		c-2.2-12.6-11.8-18.9-24.2-18.9c-21,0-30.3,16.6-30.3,36c0,17.7,7.2,35.1,27.6,35.1c15.1,0,27.7-9.1,27.7-25.6
		C136.7,72.9,126.9,62.7,114.2,62.7z M109.1,97.4c-6.6,0-10.9-4.8-10.9-10.7c0-6.4,4.5-11.5,10.8-11.5c7.7,0,11.8,5.2,11.8,11.6
		C120.8,92.4,116.2,97.4,109.1,97.4z"/>
	<path d="M71.3,93.3c-4.9,0-8.9,4-8.9,8.9s4,8.9,8.9,8.9s8.9-4,8.9-8.9C80.2,97.3,76.2,93.3,71.3,93.3z"/>
	<path d="M70.5,48c0,3.1,1.5,4.9,4.3,4.9c3.7,0,4.4-2.8,4.4-4.5v-6.6H63.6v1h6.9V48L70.5,48z M71.3,42.7h7v5.6
		c0,3.1-2.4,3.6-3.5,3.6c-1.6,0-3.5-1-3.5-3.8V42.7z"/>
	<path d="M69.8,66.5h9.3v-1h-9.3c-3.5,0-5.8-1.3-5.8-5.1c0-4.5,3.9-4.9,5.8-4.9h9.3v-1h-9.3c-2.1,0-6.6,0.3-6.6,5.8
		C63.2,65.1,66.1,66.5,69.8,66.5z"/>
	<polygon points="79.1,70.4 79.1,69.2 63.5,69.2 63.5,70.1 77.9,70.1 77.9,70.2 63.5,80.1 63.5,81.2 79.1,81.2 79.1,80.2 64.8,80.2 
		64.8,80.2 	"/>
	<polygon points="79.1,94.1 79.1,82.2 78.3,82.2 78.3,87.7 63.5,87.7 63.5,88.7 78.3,88.7 78.3,94.1 	"/>
</g>
<text transform="matrix(1 0 0 1 19 25.4381)" class="st0 st1">Powered by</text>
</svg>
