<?xml version="1.0" encoding="utf-8"?>
<!-- Generator: Adobe Illustrator 22.0.0, SVG Export Plug-In . SVG Version: 6.00 Build 0)  -->
<svg version="1.1" id="Layer_1" xmlns="http://www.w3.org/2000/svg" xmlns:xlink="http://www.w3.org/1999/xlink" x="0px" y="0px"
	 viewBox="0 0 841.9 595.3" style="enable-background:new 0 0 841.9 595.3;" xml:space="preserve">
<!-- <style type="text/css">
	.st0{fill:#253C8D;}
	.st1{font-family:'Gilroy-Light';}
	.st2{font-size:76.5953px;}
</style> -->
<g>
	<g>
		<path class="st0" d="M235.8,475c12.2-97.1,64.1-173.2,132.4-190.9c10-2.6,51.3-13.3,93.7,8.6c40,20.7,55,59.8,67.6,91.9
			c10.8,27.6,21.9,71.8,11.3,77.5c-1.7,0.9-3.6,0.6-4.3,0.5c-25.8-4.8-49.4-160.7-84.4-166.2c-18.7-2.9-48.8,35.8-99.3,181.7"/>
		<path class="st0" d="M383.9,213c-1.7-29-58.5-59.3-107.4-48.6c-29.7,6.5-73.5,31.7-73,73c0.4,33.1,29.3,63.8,58.8,66.9
			c18.5,1.9,33.7-9,63.9-30.9C364.9,245.5,385,230.9,383.9,213z"/>
		<path class="st0" d="M503.5,281.1c47.3,22,99.6,16.4,132.1-13.8c20.2-18.9,40.9-55,29.7-89.5c-11.1-34.4-39.9-53.1-68.6-63.1
			c-13.8-4.8-47.6-7.6-75.3,2c-7.5,2.6-12.8,5.8-15.5,7.4C469.5,146.2,405,193.4,384,208.8L503.5,281.1z"/>
		<circle class="st0" cx="397" cy="108.7" r="53.5"/>
	</g>
	<!-- <text transform="matrix(1 3.671024e-03 -3.671024e-03 1 199.3291 540.0964)" class="st0 st1 st2">comunicaens</text> -->
</g>
</svg>
